<svg width="25" height="24" viewBox="0 0 25 24" fill="none" xmlns="http://www.w3.org/2000/svg">
<g clip-path="url(#clip0_3_673)">
<path d="M12.1239 7.2221C11.2479 7.2221 9.89194 6.2261 8.46394 6.2621C6.57994 6.2861 4.85194 7.3541 3.87994 9.0461C1.92394 12.4421 3.37594 17.4581 5.28394 20.2181C6.21994 21.5621 7.32394 23.0741 8.78794 23.0261C10.1919 22.9661 10.7199 22.1141 12.4239 22.1141C14.1159 22.1141 14.5959 23.0261 16.0839 22.9901C17.5959 22.9661 18.5559 21.6221 19.4799 20.2661C20.5479 18.7061 20.9919 17.1941 21.0159 17.1101C20.9799 17.0981 18.0759 15.9821 18.0399 12.6221C18.0159 9.8141 20.3319 8.4701 20.4399 8.4101C19.1199 6.4781 17.0919 6.2621 16.3839 6.2141C14.5359 6.0701 12.9879 7.2221 12.1239 7.2221ZM15.2439 4.3901C16.0239 3.4541 16.5399 2.1461 16.3959 0.850098C15.2799 0.898098 13.9359 1.5941 13.1319 2.5301C12.4119 3.3581 11.7879 4.6901 11.9559 5.9621C13.1919 6.0581 14.4639 5.3261 15.2439 4.3901Z" fill="white"/>
</g>
<defs>
<clipPath id="clip0_3_673">
<rect width="24" height="24" fill="white" transform="translate(0.5)"/>
</clipPath>
</defs>
</svg>
